<svg width="300" height="300" viewBox="0 0 300 300" fill="none" xmlns="http://www.w3.org/2000/svg">
<path d="M150 300C179.667 300 208.668 291.203 233.336 274.72C258.003 258.238 277.229 234.811 288.582 207.403C299.935 179.994 302.906 149.834 297.118 120.737C291.33 91.6395 277.044 64.9119 256.066 43.934C235.088 22.9561 208.361 8.67006 179.264 2.88228C150.167 -2.90551 120.007 0.0649868 92.5977 11.4181C65.1887 22.7713 41.7619 41.9972 25.2797 66.6645C8.7975 91.3319 0 120.333 0 150C0 189.782 15.8037 227.936 43.9341 256.066C72.0646 284.196 110.218 300 150 300V300Z" fill="#FEED5A"/>
<path d="M105.106 158.064C107.326 158.064 109.497 157.405 111.344 156.171C113.19 154.937 114.63 153.184 115.48 151.132C116.329 149.08 116.552 146.823 116.119 144.644C115.685 142.466 114.616 140.466 113.045 138.895C111.475 137.325 109.474 136.255 107.296 135.822C105.118 135.389 102.861 135.611 100.809 136.461C98.757 137.311 97.0032 138.75 95.7694 140.597C94.5356 142.443 93.877 144.614 93.877 146.835C93.877 149.813 95.0601 152.669 97.1659 154.775C99.2716 156.881 102.128 158.064 105.106 158.064Z" fill="#333333"/>
<path d="M194.907 158.064C197.127 158.064 199.298 157.405 201.145 156.171C202.991 154.937 204.43 153.184 205.28 151.132C206.13 149.08 206.353 146.823 205.919 144.644C205.486 142.466 204.417 140.466 202.846 138.895C201.276 137.325 199.275 136.255 197.097 135.822C194.919 135.389 192.661 135.611 190.609 136.461C188.558 137.311 186.804 138.75 185.57 140.597C184.337 142.443 183.678 144.614 183.678 146.835C183.678 149.813 184.861 152.669 186.967 154.775C189.073 156.881 191.929 158.064 194.907 158.064Z" fill="#333333"/>
<path d="M150.077 224.964C135.507 224.976 121.073 222.157 107.577 216.664L101.349 214.035V203.192L176.863 91.2351H101.791V75.0352H198.52V88.1066L120.291 204.078C129.913 207.191 139.964 208.772 150.077 208.764C166.938 208.763 183.523 204.481 198.277 196.321L206.12 210.492C188.967 219.986 169.682 224.966 150.077 224.964Z" fill="#333333"/>
</svg>
